Coordinates
version=1
nRows=17
nColumns=38
inDegrees=no

Units are S.I. units (second, meters, Newtons, ...)
If the header above contains a line with 'inDegrees', this indicates whether rotational values are in degrees (yes) or radians (no).

endheader
time	pelvis_tilt	pelvis_list	pelvis_rotation	pelvis_tx	pelvis_ty	pelvis_tz	hip_flexion_r	hip_adduction_r	hip_rotation_r	knee_angle_r	ankle_angle_r	subtalar_angle_r	mtp_angle_r	hip_flexion_l	hip_adduction_l	hip_rotation_l	knee_angle_l	ankle_angle_l	subtalar_angle_l	mtp_angle_l	lumbar_extension	lumbar_bending	lumbar_rotation	arm_flex_r	arm_add_r	arm_rot_r	elbow_flex_r	pro_sup_r	wrist_flex_r	wrist_dev_r	arm_flex_l	arm_add_l	arm_rot_l	elbow_flex_l	pro_sup_l	wrist_flex_l	wrist_dev_l
20	0.476697	1.33888	1.15851	0.355116	1.25327	1.04522	0.472521	0.00334195	0.147211	0.730732	-0.103621	0	0	0.121168	-0.140073	-0.372431	0.441211	-0.0620781	0	0	-0.166152	0.0852942	0.0356093	0.672323	-0.448054	0.663583	0.648429	1.0963	0	0	0.42081	-0.268842	0.357106	0.923626	1.40315	0	0
20.01	0.475885	1.33579	1.15797	0.355144	1.25506	1.04506	0.484125	0.00586001	0.147497	0.724654	-0.101072	0	0	0.12105	-0.14021	-0.371675	0.438086	-0.0623366	0	0	-0.162369	0.0869702	0.0351535	0.667792	-0.44896	0.663112	0.653133	1.09869	0	0	0.412946	-0.270184	0.353446	0.928628	1.40501	0	0
20.02	0.475891	1.33304	1.15647	0.355191	1.25699	1.04491	0.494362	0.00856776	0.147826	0.715412	-0.0981518	0	0	0.120471	-0.140714	-0.371854	0.435404	-0.0624022	0	0	-0.159079	0.0884845	0.0350924	0.662714	-0.450438	0.66204	0.658808	1.10064	0	0	0.404824	-0.271222	0.349181	0.934109	1.40785	0	0
20.03	0.4756	1.33021	1.15514	0.355307	1.259	1.04473	0.50439	0.0113897	0.148472	0.704308	-0.0956726	0	0	0.120067	-0.141336	-0.372072	0.433172	-0.0624214	0	0	-0.156027	0.0899675	0.0351945	0.65721	-0.452537	0.660772	0.666007	1.10301	0	0	0.396052	-0.271861	0.343116	0.940444	1.41278	0	0
20.04	0.475097	1.32751	1.15402	0.355468	1.26104	1.04455	0.513884	0.0143819	0.149754	0.691755	-0.0941309	0	0	0.119686	-0.141831	-0.371981	0.431215	-0.0623075	0	0	-0.153001	0.0914618	0.0352371	0.651821	-0.454577	0.659822	0.673065	1.10451	0	0	0.387474	-0.272683	0.337604	0.946611	1.41691	0	0
20.05	0.474585	1.32491	1.15299	0.355688	1.26313	1.04436	0.522817	0.0177338	0.151778	0.678114	-0.0931644	0	0	0.119583	-0.142608	-0.372237	0.430147	-0.0620694	0	0	-0.150164	0.0929334	0.0350714	0.646422	-0.456657	0.658718	0.680544	1.10503	0	0	0.378806	-0.273865	0.332224	0.953263	1.42013	0	0
20.06	0.47466	1.32263	1.15139	0.355989	1.26525	1.04419	0.530959	0.0214922	0.154524	0.663651	-0.0934795	0	0	0.119186	-0.143404	-0.371892	0.429152	-0.0617479	0	0	-0.147779	0.0942824	0.0351078	0.640936	-0.458971	0.657617	0.688309	1.10507	0	0	0.370425	-0.275323	0.3274	0.960043	1.42283	0	0
20.07	0.475767	1.32107	1.14844	0.356324	1.26746	1.04406	0.538104	0.0252133	0.15799	0.648487	-0.0954551	0	0	0.11761	-0.144116	-0.372075	0.427908	-0.0613175	0	0	-0.146266	0.0957331	0.0353038	0.635736	-0.461654	0.657647	0.696619	1.10569	0	0	0.361882	-0.276983	0.322559	0.967056	1.42537	0	0
20.08	0.476186	1.31967	1.14598	0.35672	1.26975	1.04391	0.545083	0.028723	0.161981	0.63296	-0.0993063	0	0	0.115797	-0.14454	-0.372337	0.426585	-0.0607585	0	0	-0.144856	0.0970476	0.035488	0.630531	-0.464694	0.658883	0.705674	1.10604	0	0	0.353022	-0.278859	0.317572	0.974299	1.42756	0	0
20.09	0.476925	1.31829	1.14326	0.357195	1.27218	1.04373	0.551243	0.0326011	0.165841	0.616306	-0.104581	0	0	0.113756	-0.145183	-0.372822	0.425294	-0.0601091	0	0	-0.143387	0.0984637	0.0355244	0.624975	-0.467807	0.660117	0.715309	1.10544	0	0	0.343617	-0.280955	0.312358	0.98181	1.4296	0	0
20.1	0.477959	1.31695	1.14034	0.357737	1.2747	1.04352	0.556635	0.0368144	0.169534	0.599082	-0.110446	0	0	0.111629	-0.146106	-0.373383	0.424332	-0.0592229	0	0	-0.141939	0.0999761	0.0354281	0.619356	-0.471007	0.66161	0.725274	1.10468	0	0	0.333791	-0.283242	0.306975	0.98967	1.43168	0	0
20.11	0.479022	1.31569	1.13754	0.358312	1.27731	1.0433	0.56129	0.0409723	0.173031	0.581806	-0.116698	0	0	0.109277	-0.147019	-0.373657	0.423269	-0.0583546	0	0	-0.140462	0.101478	0.0351176	0.613461	-0.474092	0.662999	0.735462	1.10314	0	0	0.323522	-0.285659	0.30132	0.997886	1.43394	0	0
20.12	0.480124	1.31473	1.13492	0.358871	1.28004	1.04307	0.564921	0.044749	0.176351	0.564566	-0.122688	0	0	0.106379	-0.147726	-0.373986	0.421777	-0.0575738	0	0	-0.139168	0.102912	0.0344275	0.607204	-0.477176	0.664296	0.746122	1.10027	0	0	0.312771	-0.288147	0.295253	1.00648	1.43656	0	0
20.13	0.481976	1.31422	1.1319	0.359418	1.28291	1.04287	0.567091	0.0481494	0.179092	0.546915	-0.1283	0	0	0.102796	-0.148457	-0.374478	0.420164	-0.0567608	0	0	-0.138479	0.104365	0.0331729	0.6009	-0.480404	0.666002	0.757549	1.09539	0	0	0.301418	-0.290571	0.288077	1.01552	1.43984	0	0
20.14	0.484312	1.31423	1.12883	0.359995	1.28593	1.04269	0.567907	0.0511891	0.181162	0.529964	-0.131892	0	0	0.0985295	-0.149185	-0.375194	0.41846	-0.0561247	0	0	-0.138019	0.1057	0.0311885	0.594359	-0.483067	0.667652	0.768928	1.08915	0	0	0.289554	-0.2934	0.280801	1.0246	1.44276	0	0
20.15	0.487072	1.31487	1.12574	0.360586	1.2891	1.04251	0.567196	0.0538514	0.182893	0.513467	-0.134958	0	0	0.0933922	-0.149805	-0.376078	0.416559	-0.055748	0	0	-0.137859	0.107007	0.0285739	0.588307	-0.485929	0.670944	0.780331	1.08399	0	0	0.277235	-0.296497	0.273485	1.03372	1.4451	0	0
20.16	0.489563	1.31589	1.12344	0.36117	1.29241	1.04229	0.565813	0.0557656	0.183923	0.497768	-0.138862	0	0	0.0879509	-0.150306	-0.377143	0.414931	-0.0553828	0	0	-0.137713	0.108213	0.0251779	0.58255	-0.488857	0.675193	0.7918	1.07959	0	0	0.264423	-0.299873	0.266006	1.04316	1.44739	0	0
